<svg xmlns="http://www.w3.org/2000/svg" version="1.1" xmlns:xlink="http://www.w3.org/1999/xlink" xmlns:svgjs="http://svgjs.dev/svgjs" width="1500" height="1500" viewBox="0 0 1500 1500"><rect width="1500" height="1500" fill="#ffffff"></rect><g transform="matrix(0.6666666666666666,0,0,0.6666666666666666,249.39393939393938,438.5856950067477)"><svg viewBox="0 0 396 247" data-background-color="#ffffff" preserveAspectRatio="xMidYMid meet" height="935" width="1500" xmlns="http://www.w3.org/2000/svg" xmlns:xlink="http://www.w3.org/1999/xlink"><g id="tight-bounds" transform="matrix(1,0,0,1,0.2400000000000091,-0.09999999999999432)"><svg viewBox="0 0 395.52 247.2" height="247.2" width="395.52"><g><svg></svg></g><g><svg viewBox="0 0 395.52 247.2" height="247.2" width="395.52"><mask id="847fa6fc-ee60-46d3-b377-29dd310ac391"><rect width="395.52" height="247.2" fill="white"></rect><g transform="matrix(1,0,0,1,60.62363707787122,37.08)" id="clone"><svg viewBox="0 0 274.27272584425754 173.04" height="173.04" width="274.27272584425754"><g><svg viewBox="0 0 274.27272584425754 173.04" height="173.04" width="274.27272584425754"><g><svg viewBox="0 0 395.52 249.53549642724323" height="173.04" width="274.27272584425754"><g><svg viewBox="0 0 395.52 249.53549642724323" height="249.53549642724323" width="395.52"><g id="SvgjsG1317"><svg viewBox="0 0 395.52 249.53549642724323" height="249.53549642724323" width="395.52" id="SvgjsSvg1316"><g><svg viewBox="0 0 395.52 150.72518918918917" height="150.72518918918917" width="395.52"><g transform="matrix(1,0,0,1,0,0)"><svg width="395.52" viewBox="-1.75 -32.55 93.49 36.25" height="150.72518918918917" data-palette-color="#556970"><path d="M9.55 0L1.25 0 1.25-29.55 15.55-29.55 15.55-24 9.55-24 9.55-18.25 15.05-18.25 15.05-12 9.55-12 9.55 0ZM5.05-15L5.25-2.75 5.5-2.75 5.7-14.9 12.25-14.95 12.25-15.05 5.7-15.1 5.5-26.6 13.5-26.65 13.5-26.75 5.25-26.8 5.05-15ZM25.35 0L17.55 0 17.55-24.75 24.2-24.75 24.8-21.5Q25.25-23.05 26.5-24.08 27.75-25.1 29.35-25.1L29.35-25.1Q32.65-25.1 33.75-23.45 34.85-21.8 34.85-18.55L34.85-18.55 34.85 0 27.05 0 27.05-18.25Q27.05-19.65 26.2-19.65L26.2-19.65Q26-19.65 25.75-19.63 25.5-19.6 25.35-19.5L25.35-19.5 25.35 0ZM30.6-12.25L30.8-2.35 31-2.35 31.25-12.25 31.1-19.95Q31.05-21.1 30.5-21.78 29.95-22.45 28.9-22.45L28.9-22.45Q27.65-22.45 26.75-21.7L26.75-21.7 26.75-21.6Q27.75-22.35 28.9-22.35L28.9-22.35Q30-22.35 30.42-21.5 30.85-20.65 30.8-19.95L30.8-19.95 30.6-12.25ZM21.15-12L21.35-2.35 21.55-2.35 21.8-12 21.6-21.45 21.4-21.45 21.15-12ZM45.49 0.6L45.49 0.6Q42.55 0.6 40.62-0.08 38.7-0.75 37.77-2.68 36.84-4.6 36.84-8.3L36.84-8.3 36.84-18.65Q36.84-22.35 39.09-23.75 41.34-25.15 45.49-25.15L45.49-25.15Q49.64-25.15 51.89-23.75 54.14-22.35 54.14-18.65L54.14-18.65 54.14-11.65 44.64-11.65 44.64-4.9Q44.64-4.05 44.87-3.73 45.09-3.4 45.49-3.4L45.49-3.4Q45.89-3.4 46.12-3.73 46.34-4.05 46.34-4.9L46.34-4.9 46.34-9.4 54.14-9.4 54.14-8.35Q54.14-4.65 53.22-2.7 52.3-0.75 50.39-0.08 48.49 0.6 45.49 0.6ZM49.99-19.1L49.99-13.35 50.39-13.35 50.39-19.1Q50.39-20.75 49.52-21.83 48.64-22.9 46.84-22.9L46.84-22.9 46.84-22.8Q48.59-22.8 49.3-21.73 49.99-20.65 49.99-19.1L49.99-19.1ZM43.64-1.65L43.64-1.65 43.64-1.75Q42.55-1.75 41.64-2.7 40.74-3.65 40.8-5.1L40.8-5.1 40.95-12.25 40.8-19.45Q40.74-20.9 41.92-21.83 43.09-22.75 44.49-22.75L44.49-22.75 44.49-22.85Q42.74-22.85 41.59-21.93 40.45-21 40.39-19.15L40.39-19.15 40.24-12.25 40.39-5.15Q40.45-3.6 41.49-2.63 42.55-1.65 43.64-1.65ZM44.64-19.65L44.64-15 46.34-15 46.34-19.65Q46.34-20.5 46.12-20.83 45.89-21.15 45.49-21.15L45.49-21.15Q45.09-21.15 44.87-20.83 44.64-20.5 44.64-19.65L44.64-19.65ZM46.45-1.75L46.45-1.65Q48.24-1.65 49.32-2.83 50.39-4 50.39-5.65L50.39-5.65 50.39-8.2 49.99-8.2 49.99-5.65Q49.99-4.1 49.09-2.93 48.2-1.75 46.45-1.75L46.45-1.75ZM64.39 0.7L64.39 0.7Q59.39 0.7 57.49-1.15 55.59-3 55.59-7.2L55.59-7.2 55.59-8.9 63.44-8.9 63.44-5.45Q63.44-4.5 63.59-3.95L63.59-3.95Q63.74-3.4 64.29-3.4L64.29-3.4Q64.79-3.4 64.97-3.8 65.14-4.2 65.14-4.75L65.14-4.75 65.14-7.05Q65.14-8.35 64.62-8.95 64.09-9.55 63.14-9.9 62.19-10.25 60.99-10.75L60.99-10.75Q59.09-11.45 57.67-12.8 56.24-14.15 56.24-16.75L56.24-16.75 56.24-18.15Q56.24-21.95 58.27-23.6 60.29-25.25 65.04-25.25L65.04-25.25Q69.84-25.25 71.67-23.45 73.49-21.65 73.49-17.65L73.49-17.65 73.49-16.05 65.94-16.05 65.94-19.2Q65.94-20.2 65.79-20.7L65.79-20.7Q65.64-21.15 65.09-21.15L65.09-21.15Q64.54-21.15 64.39-20.78 64.24-20.4 64.24-19.85L64.24-19.85 64.24-17.5Q64.24-16.35 64.92-15.78 65.59-15.2 66.62-14.9 67.64-14.6 68.69-14.2L68.69-14.2Q70.64-13.55 72.07-12.25 73.49-10.95 73.49-8.5L73.49-8.5 73.49-6.7Q73.49-2.7 71.39-1 69.29 0.7 64.39 0.7ZM64.44-1.45L64.44-1.45Q64.89-1.45 65.49-1.48 66.09-1.5 66.49-1.6L66.49-1.6Q68.09-1.95 68.79-3.33 69.49-4.7 69.49-7.1L69.49-7.1Q69.49-9.2 68.62-10.38 67.74-11.55 65.99-12.2L65.99-12.2 64.74-12.65 63.44-13.25Q61.74-14.05 61.19-15.25 60.64-16.45 60.64-18.3L60.64-18.3Q60.64-20.5 61.22-21.58 61.79-22.65 63.29-22.95L63.29-22.95Q63.64-23.05 64.09-23.08 64.54-23.1 64.94-23.1L64.94-23.1 65.69-23.1Q65.89-23.1 66.04-23.08 66.19-23.05 66.34-23L66.34-23Q67.99-22.75 68.67-21.65 69.34-20.55 69.34-18.3L69.34-18.3 69.44-18.3Q69.59-20.7 68.89-21.78 68.19-22.85 66.34-23.1L66.34-23.1Q66.04-23.15 65.69-23.18 65.34-23.2 64.94-23.2L64.94-23.2Q64.54-23.2 64.09-23.18 63.64-23.15 63.29-23.1L63.29-23.1Q61.59-22.8 60.82-21.7 60.04-20.6 60.04-18.3L60.04-18.3Q60.04-16.35 60.84-15.03 61.64-13.7 63.39-13.05L63.39-13.05 64.74-12.55 65.94-12.05Q67.69-11.35 68.32-10.23 68.94-9.1 68.94-7.1L68.94-7.1Q68.94-4.85 68.42-3.43 67.89-2 66.44-1.75L66.44-1.75Q66.09-1.65 65.49-1.58 64.89-1.5 64.44-1.5L64.44-1.5Q64.04-1.5 63.42-1.55 62.79-1.6 62.49-1.7L62.49-1.7Q60.89-2 60.27-3.38 59.64-4.75 59.64-7.15L59.64-7.15 59.49-7.15Q59.39-4.6 60.04-3.2 60.69-1.8 62.44-1.55L62.44-1.55Q62.74-1.5 63.39-1.48 64.04-1.45 64.44-1.45ZM84.24 0.5L84.24 0.5Q82.29 0.5 80.59 0.08 78.89-0.35 77.81-1.65 76.74-2.95 76.74-5.5L76.74-5.5 76.74-20.25 74.29-20.25 74.29-23.6 77.44-24.75 78.49-29.25 84.54-29.25 84.54-24.75 88.74-24.75 88.74-20.25 84.54-20.25 84.54-6.85Q84.54-6.1 84.86-5.38 85.19-4.65 86.39-4.65L86.39-4.65 87.09-4.65Q87.29-4.65 87.47-4.65 87.64-4.65 87.84-4.7L87.84-4.7 88.74-4.8 88.74-0.2Q88.39-0.1 88.06-0.03 87.74 0.05 87.34 0.15L87.34 0.15Q86.69 0.3 85.89 0.4 85.09 0.5 84.24 0.5ZM83.44-2.1L83.44-2.1 83.44-2.15Q82.14-2.25 81.34-3.15 80.54-4.05 80.59-5.8L80.59-5.8 80.79-14.75 80.64-22.2 86.44-22.35 86.44-22.45 80.64-22.55 80.59-26 80.39-26 80.29-22.55 76.09-22.45 76.09-22.35 80.29-22.2 80.14-14.75 80.29-5.65Q80.34-4.35 81.09-3.23 81.84-2.1 83.44-2.1Z" opacity="1" transform="matrix(1,0,0,1,0,0)" fill="black" class="wordmark-text-0" id="SvgjsPath1315" stroke-width="5" stroke="black" stroke-linejoin="round"></path></svg></g></svg></g><g transform="matrix(1,0,0,1,2.5,169.59983545427025)"><svg viewBox="0 0 390.52 79.93566097297297" height="79.93566097297297" width="390.52"><g transform="matrix(1,0,0,1,0,0)"><svg width="390.52" viewBox="-3.4 -33.15 225.33 46.9" height="79.93566097297297" data-palette-color="#556970"><path d="M6.35 4.95L6.35 4.95Q3.25 4.95 1.43 3.13-0.4 1.3-0.4-1.8L-0.4-1.8Q-0.4-3.95 0.25-6.28 0.9-8.6 2.15-11.1L2.15-11.1Q3.75-14.3 6.03-16.88 8.3-19.45 11.03-20.95 13.75-22.45 16.65-22.45L16.65-22.45Q18.55-22.45 19.43-21.53 20.3-20.6 20.3-19.1L20.3-19.1Q20.3-17.8 19.75-16.23 19.2-14.65 18.43-13.33 17.65-12 16.85-11.3L16.85-11.3Q16.65-11.1 16.4-11.1L16.4-11.1Q16.15-11.1 16.15-11.35L16.15-11.35Q16.15-11.7 16.5-12.05L16.5-12.05Q17.35-12.8 18.05-14.45 18.75-16.1 18.75-17.6L18.75-17.6Q18.75-18.9 18.15-19.68 17.55-20.45 16.25-20.45L16.25-20.45Q12.65-20.45 9.25-17.35L9.25-17.35Q7-15.3 5.2-12.6 3.4-9.9 2.3-7.13 1.2-4.35 0.95-2.05L0.95-2.05Q0.8-0.3 1.53 1.18 2.25 2.65 3.6 3.48 4.95 4.3 6.65 4.15L6.65 4.15Q11.2 3.75 15.55-0.03 19.9-3.8 24.75-10.45L24.75-10.45Q24.15-11.05 23.95-11.9L23.95-11.9Q23.85-12.7 24.28-13.18 24.7-13.65 25.35-13.65L25.35-13.65Q26.2-13.65 26.7-13.15L26.7-13.15Q27.55-14.65 29.85-18.55L29.85-18.55Q30.15-19.05 30.88-20.28 31.6-21.5 32.45-23.03 33.3-24.55 34-25.9L34-25.9Q34.05-25.95 34.05-26.1L34.05-26.1Q34.05-26.2 33.8-26.55L33.8-26.55Q33.45-26.8 33.7-27.1L33.7-27.1 35-29.75Q35.25-30.15 35.85-30.15L35.85-30.15Q36.45-30.15 36.98-29.85 37.5-29.55 37.45-29.2L37.45-29.2Q36.9-26.9 34.63-22.93 32.35-18.95 28.75-13.5L28.75-13.5Q28.15-12.6 27.75-12.2L27.75-12.2 27.65-12.1Q27.5-11.95 27.55-11.7L27.55-11.7 27.65-10.95Q28.4-10.7 28.75-10.7L28.75-10.7Q30.45-10.7 32.35-11.28 34.25-11.85 36.02-12.75 37.8-13.65 39.05-14.55L39.05-14.55Q42.25-16.9 44.48-19.38 46.7-21.85 48.3-24.7L48.3-24.7Q48.55-25.3 48.55-26.15L48.55-26.15Q48.65-26.7 48.83-27.2 49-27.7 49.25-28.05L49.25-28.05Q49.45-28.4 50.05-28.4L50.05-28.4Q50.65-28.4 51.13-28.08 51.6-27.75 51.5-27.3L51.5-27.3Q51.05-25.5 49.3-23.05 47.55-20.6 45.08-18.1 42.6-15.6 39.85-13.6L39.85-13.6Q38.45-12.55 36.52-11.63 34.6-10.7 32.55-10.13 30.5-9.55 28.6-9.55L28.6-9.55 28.05-9.55Q28.45-7.7 29-6.3 29.55-4.9 30.55-3.45L30.55-3.45Q31.6-2 32.7-1.07 33.8-0.15 35.25-0.15L35.25-0.15Q36.2-0.15 37.35-0.48 38.5-0.8 38.8-1.3L38.8-1.3Q39.1-1.75 39.55-1.75L39.55-1.75Q39.9-1.75 39.9-1.5L39.9-1.5Q39.9-1.35 39.75-1.1L39.75-1.1Q39.3-0.45 38.27 0.43 37.25 1.3 36.2 1.93 35.15 2.55 34.45 2.55L34.45 2.55Q32.55 2.4 31.25 1.35 29.95 0.3 28.75-2.05L28.75-2.05Q28-3.65 27.25-6.15L27.25-6.15 26.7-8Q26.6-8.55 26.45-9 26.3-9.45 26.2-9.8L26.2-9.8 25.95-9.9Q20.85-3 15.85 0.95 10.85 4.9 6.35 4.95ZM43.47 0.55L43.47 0.55Q42.42 0.55 41.62 0L41.62 0Q40.32-1 40.32-3L40.32-3Q40.32-5 41.72-7.25 43.12-9.5 45.97-11.4L45.97-11.4Q46.47-11.75 47.32-11.75L47.32-11.75Q48.42-11.75 49.29-11.15 50.17-10.55 49.97-9.6L49.97-9.6Q49.62-8.05 48.44-6.85 47.27-5.65 45.69-4.73 44.12-3.8 42.47-2.95L42.47-2.95Q42.42-2.8 42.39-2.65 42.37-2.5 42.37-2.35L42.37-2.35Q42.37-1.65 42.84-1.13 43.32-0.6 44.17-0.6L44.17-0.6Q44.82-0.6 45.27-0.8L45.27-0.8Q46.07-1.1 46.59-1.35 47.12-1.6 47.82-2.1 48.52-2.6 49.72-3.6L49.72-3.6Q50.27-4 50.37-4L50.37-4Q50.67-4 50.57-3.55L50.57-3.55Q50.07-2.75 48.84-1.8 47.62-0.85 46.14-0.15 44.67 0.55 43.47 0.55ZM42.77-4.3L42.77-4.3Q43.17-4.3 44.42-5.1 45.67-5.9 46.77-6.85L46.77-6.85Q48.67-8.6 48.67-9.55L48.67-9.55Q48.67-9.8 48.52-10L48.52-10Q48.37-10.25 48.07-10.25L48.07-10.25Q47.12-10.25 44.87-8L44.87-8Q43.32-6.5 42.77-4.3ZM51.87-13.05L51.87-13.05Q51.42-13.1 50.97-13.6 50.52-14.1 50.17-14.73 49.82-15.35 49.67-15.75L49.67-15.75Q48.87-15.35 47.69-14.73 46.52-14.1 45.49-13.63 44.47-13.15 44.02-13.15L44.02-13.15Q43.82-13.15 43.82-13.35L43.82-13.35Q43.82-13.45 43.94-13.55 44.07-13.65 44.22-13.75L44.22-13.75Q44.62-14.05 45.47-14.63 46.32-15.2 47.32-15.85 48.32-16.5 49.14-16.95 49.97-17.4 50.27-17.4L50.27-17.4Q50.92-17.4 51.02-16.9L51.02-16.9Q51.22-16.1 51.67-15.05 52.12-14 52.32-13.6L52.32-13.6Q52.37-13.55 52.37-13.4L52.37-13.4Q52.37-13.25 52.19-13.15 52.02-13.05 51.87-13.05ZM51.69 0.8L51.69 0.8Q50.79 0.8 50.79 0.1L50.79 0.1Q50.79-0.35 51.11-1.05 51.44-1.75 51.79-2.4L51.79-2.4Q52.74-4.1 53.54-5.7 54.34-7.3 55.09-9.1L55.09-9.1Q55.44-9.9 56.14-9.9L56.14-9.9Q56.89-9.9 56.59-9L56.59-9Q56.29-8.25 55.99-7.65L55.99-7.65Q54.59-4.8 54.59-3.8L54.59-3.8Q54.59-3.35 54.89-3.25L54.89-3.25Q55.59-3.8 55.94-4.08 56.29-4.35 56.34-4.4L56.34-4.4Q57.04-4.95 57.91-5.68 58.79-6.4 59.84-7.35L59.84-7.35Q61.49-8.85 62.59-8.85L62.59-8.85Q63.94-8.85 63.74-6.4L63.74-6.4Q63.69-5.45 63.74-4.55L63.74-4.55Q63.79-4.35 63.79-3.98 63.79-3.6 63.79-3.1L63.79-3.1Q63.79-2.6 64.39-2.6L64.39-2.6Q65.09-2.6 65.69-3L65.69-3 66.79-3.75 67.89-4.45Q67.99-4.5 68.24-4.5L68.24-4.5Q68.54-4.5 68.24-4.05L68.24-4.05Q65.09-0.15 63.04-0.15L63.04-0.15Q62.64-0.15 62.24-0.3L62.24-0.3Q61.89-0.45 61.74-1.18 61.59-1.9 61.56-2.75 61.54-3.6 61.54-4.05L61.54-4.05 61.59-5.7Q61.59-6.75 61.04-6.75L61.04-6.75Q59.74-6.75 54.64-1.4L54.64-1.4Q54.24-0.9 53.39-0.05 52.54 0.8 51.69 0.8ZM69.05 2.95L68.9 2.95Q67.85 2.95 68 1.9L68 1.9Q68.3 0 69.05-1.9L69.05-1.9Q69.45-2.9 70.08-4.2 70.7-5.5 71.55-7.1L71.55-7.1Q72-7.95 72.33-8.6 72.65-9.25 72.85-9.65L72.85-9.65Q73.2-10.35 73.58-11.15 73.95-11.95 74.35-12.9L74.35-12.9Q76.25-17.05 77.63-19.43 79-21.8 80.6-22.8L80.6-22.8Q80.7-22.9 81.15-22.83 81.6-22.75 82.03-22.6 82.45-22.45 82.55-22.25L82.55-22.25Q82.7-21.9 82.7-21.25L82.7-21.25Q82.7-19.25 80.85-16.45L80.85-16.45Q79.85-14.95 78.33-13.18 76.8-11.4 74.75-9.35L74.75-9.35 73.85-7.9Q72.35-5.5 71.53-3.8 70.7-2.1 70.9-0.8L70.9-0.8Q71-0.5 71.15-0.5L71.15-0.5Q71.3-0.5 71.65-0.75L71.65-0.75Q72-1 72.38-1.35 72.75-1.7 73.1-2.2L73.1-2.2Q73.35-2.45 73.53-2.75 73.7-3.05 73.9-3.3L73.9-3.3Q74.2-3.85 74.5-4.2L74.5-4.2Q75.45-5.8 76.1-6.45L76.1-6.45Q77.2-7.55 78.05-7.55L78.05-7.55Q79.05-7.55 79.83-6.48 80.6-5.4 81.5-3.4L81.5-3.4Q82.15-1.9 82.7-1.1L82.7-1.1Q83.25-0.35 83.75-0.35L83.75-0.35Q84.25-0.35 84.9-0.95L84.9-0.95Q85.5-1.5 85.95-1.55L85.95-1.55Q86.25-1.2 85.9-0.68 85.55-0.15 84.88 0.33 84.2 0.8 83.55 1.1 82.9 1.4 82.55 1.3L82.55 1.3Q81.15 0.9 80.38-0.13 79.6-1.15 78.85-2.8L78.85-2.8Q78.6-3.35 78.4-3.78 78.2-4.2 78-4.45L78-4.45Q77.65-4.95 77.05-4.95L77.05-4.95Q76.6-4.95 76-4.5L76-4.5Q75.4-4 74.8-3.33 74.2-2.65 73.65-1.7L73.65-1.7Q73.3-1.2 73.13-0.93 72.95-0.65 72.85-0.55L72.85-0.55Q72.6-0.2 72.08 0.48 71.55 1.15 70.85 2.15L70.85 2.15Q70.6 2.45 70.08 2.7 69.55 2.95 69.05 2.95L69.05 2.95ZM75-11.4L75-11.4Q75.15-11.3 75.75-11.88 76.35-12.45 77.13-13.38 77.9-14.3 78.68-15.33 79.45-16.35 79.9-17.15L79.9-17.15Q81.45-19.8 81.45-20.65L81.45-20.65Q81.45-21 81.2-21.15L81.2-21.15Q80.7-21.55 79.85-20.73 79-19.9 78.15-18.57 77.3-17.25 76.7-15.95L76.7-15.95Q76.35-15.15 75.98-14.15 75.6-13.15 75.35-12.38 75.1-11.6 75-11.4ZM97.84 0.8L97.84 0.8Q96.94 0.8 96.94 0.1L96.94 0.1Q96.94-0.35 97.26-1.05 97.59-1.75 97.94-2.4L97.94-2.4Q98.89-4.1 99.69-5.7 100.49-7.3 101.24-9.1L101.24-9.1Q101.59-9.9 102.29-9.9L102.29-9.9Q103.04-9.9 102.74-9L102.74-9Q102.44-8.25 102.14-7.65L102.14-7.65Q100.74-4.8 100.74-3.8L100.74-3.8Q100.74-3.35 101.04-3.25L101.04-3.25Q101.74-3.8 102.09-4.08 102.44-4.35 102.49-4.4L102.49-4.4Q103.19-4.95 104.06-5.68 104.94-6.4 105.99-7.35L105.99-7.35Q107.64-8.85 108.74-8.85L108.74-8.85Q110.09-8.85 109.89-6.4L109.89-6.4Q109.84-5.45 109.89-4.55L109.89-4.55Q109.94-4.35 109.94-3.98 109.94-3.6 109.94-3.1L109.94-3.1Q109.94-2.6 110.54-2.6L110.54-2.6Q111.24-2.6 111.84-3L111.84-3 112.94-3.75 114.04-4.45Q114.14-4.5 114.39-4.5L114.39-4.5Q114.69-4.5 114.39-4.05L114.39-4.05Q111.24-0.15 109.19-0.15L109.19-0.15Q108.79-0.15 108.39-0.3L108.39-0.3Q108.04-0.45 107.89-1.18 107.74-1.9 107.71-2.75 107.69-3.6 107.69-4.05L107.69-4.05 107.74-5.7Q107.74-6.75 107.19-6.75L107.19-6.75Q105.89-6.75 100.79-1.4L100.79-1.4Q100.39-0.9 99.54-0.05 98.69 0.8 97.84 0.8ZM115.31 10.75L115.31 10.75Q114.21 10.75 113.48 9.73 112.76 8.7 112.76 7.4L112.76 7.4Q112.76 6.35 113.06 5.85L113.06 5.85Q113.46 5.3 113.81 5.3L113.81 5.3Q114.21 5.3 114.21 5.75L114.21 5.75Q114.21 6.15 113.91 6.55L113.91 6.55Q113.71 6.8 113.71 7.2L113.71 7.2Q113.71 7.95 114.21 8.7 114.71 9.45 115.41 9.45L115.41 9.45Q115.51 9.45 115.61 9.43 115.71 9.4 115.86 9.35L115.86 9.35Q118.21 8.45 120.16 5.6L120.16 5.6Q122.11 2.7 123.36-0.78 124.61-4.25 125.21-7.2L125.21-7.2 125.01-7.25Q124.86-7.35 124.56-7.03 124.26-6.7 123.96-6.33 123.66-5.95 123.56-5.8L123.56-5.8Q123.41-5.6 122.78-4.93 122.16-4.25 121.31-3.43 120.46-2.6 119.61-1.8 118.76-1 118.16-0.5L118.16-0.5Q117.41 0.15 116.31 0.15L116.31 0.15Q116.01 0.15 115.71 0.05L115.71 0.05Q115.16-0.25 115.16-0.9L115.16-0.9Q115.16-1.75 116.16-3.5L116.16-3.5Q116.91-4.8 118.41-6.78 119.91-8.75 121.71-10.15L121.71-10.15Q123.01-11.2 124.41-11.5L124.41-11.5Q124.66-11.55 124.91-11.58 125.16-11.6 125.41-11.65L125.41-11.65Q125.66-11.65 125.86-11.65 126.06-11.65 126.26-11.7L126.26-11.7Q126.31-11.7 127.03-11.78 127.76-11.85 127.96-12.25L127.96-12.25 128.11-12.3Q128.31-12.3 128.51-12.1L128.51-12.1Q128.66-11.95 128.66-11.5L128.66-11.5Q128.66-11.35 128.61-11.13 128.56-10.9 128.56-10.6L128.56-10.6 128.56-10.55Q128.56-8.7 127.86-6.73 127.16-4.75 126.36-2.7L126.36-2.7Q124.71 1.45 122.18 5 119.66 8.55 116.61 10.35L116.61 10.35Q115.96 10.75 115.31 10.75ZM116.81-1.65L116.81-1.65Q117.01-1.55 117.11-1.55L117.11-1.55Q117.36-1.55 117.86-1.8L117.86-1.8Q118.21-2 118.58-2.3 118.96-2.6 119.46-3L119.46-3Q119.81-3.25 120.26-3.7 120.71-4.15 121.31-4.75L121.31-4.75 122.26-5.65Q122.96-6.35 123.76-7.3 124.56-8.25 125.11-9.15 125.66-10.05 125.66-10.55L125.66-10.55Q125.66-11 125.11-11L125.11-11Q124.56-11 123.63-10.4 122.71-9.8 121.73-8.95 120.76-8.1 120.06-7.3L120.06-7.3Q119.41-6.65 118.83-5.88 118.26-5.1 117.71-4.25L117.71-4.25Q117.06-3.3 116.81-2.6L116.81-2.6Q116.51-1.85 116.81-1.65ZM138.98 1.45L138.98 1.45Q137.68 1.45 137.68-0.45L137.68-0.45Q137.68-2.4 139.03-6.2L139.03-6.2Q137.43-4.15 135.85-2.58 134.28-1 132.73 0L132.73 0Q131.63 0.8 130.73 0.8L130.73 0.8Q129.53 0.8 129.53-0.85L129.53-0.85Q129.53-1.75 129.83-2.5L129.83-2.5Q130.23-3.6 131-5.05 131.78-6.5 132.83-7.95 133.88-9.4 134.98-10.4L134.98-10.4Q135.38-10.65 135.48-10.65L135.48-10.65Q135.83-10.65 135.83-10.25L135.83-10.25Q135.83-10.1 135.68-9.85L135.68-9.85Q135.23-9.35 134.63-8.4 134.03-7.45 133.48-6.35 132.93-5.25 132.55-4.33 132.18-3.4 132.18-2.95L132.18-2.95Q132.18-2.05 132.98-2.05L132.98-2.05Q133.33-2.05 133.73-2.3L133.73-2.3Q135.58-3.45 137.13-5.08 138.68-6.7 140.03-9.5L140.03-9.5Q140.48-9.8 141.03-9.8L141.03-9.8Q141.58-9.8 141.95-9.45 142.33-9.1 142.33-8.5L142.33-8.5Q142.33-8.05 142.08-7.45L142.08-7.45Q142.03-7.25 141.9-7.05 141.78-6.85 141.63-6.6L141.63-6.6Q141.48-6.35 141.38-6.13 141.28-5.9 141.18-5.75L141.18-5.75Q140.23-4.05 139.7-2.9 139.18-1.75 139.18-0.9L139.18-0.9Q139.18 0.1 140.08 0.1L140.08 0.1Q140.88 0.1 141.68-0.5L141.68-0.5Q142.18-0.85 142.53-0.85L142.53-0.85Q143.08-0.85 142.3-0.18 141.53 0.5 140.43 1.05L140.43 1.05Q139.38 1.45 138.98 1.45ZM143.38-7.55L143.38-7.55Q142.33-7.55 141.43-8.25L141.43-8.25Q141.33-8.35 141.2-8.58 141.08-8.8 141.28-8.7L141.28-8.7Q141.53-8.65 141.93-8.58 142.33-8.5 142.73-8.5L142.73-8.5Q142.98-8.5 143.15-8.53 143.33-8.55 143.53-8.6L143.53-8.6Q144.03-8.7 144.25-9.08 144.48-9.45 144.48-9.9L144.48-9.9Q144.48-10.4 144.38-10.73 144.28-11.05 144.18-11.25L144.18-11.25Q144.18-11.3 144.15-11.43 144.13-11.55 144.13-11.65L144.13-11.65Q144.13-12.1 144.43-12.1L144.43-12.1Q145.18-12.1 145.58-11.28 145.98-10.45 145.98-9.75L145.98-9.75Q145.98-8.8 145.18-8.18 144.38-7.55 143.38-7.55ZM146.29 0.85L146.29 0.85Q144.34 0.85 144.34-0.9L144.34-0.9Q144.34-1 144.37-1.25 144.39-1.5 144.44-1.85L144.44-1.85Q144.94-3.9 146.47-5.83 147.99-7.75 149.99-9.2L149.99-9.2Q150.74-9.8 152.39-9.8L152.39-9.8Q153.34-9.8 154.07-9.53 154.79-9.25 155.09-8.7L155.09-8.7Q155.39-8.2 155.39-7.55L155.39-7.55Q155.39-7.45 155.37-7.25 155.34-7.05 155.29-6.8L155.29-6.8Q155.39-6.85 155.62-6.85 155.84-6.85 156.19-6.9L156.19-6.9Q156.54-6.95 156.87-7 157.19-7.05 157.54-7.05L157.54-7.05 157.74-7.05Q158.29-7.05 157.87-6.63 157.44-6.2 156.74-6.1L156.74-6.1 155.04-5.9Q154.54-4.5 153.32-3.1 152.09-1.7 150.62-0.68 149.14 0.35 147.84 0.65L147.84 0.65Q147.09 0.85 146.29 0.85ZM152.69-6.6L152.69-6.6Q152.99-6.6 153.42-6.63 153.84-6.65 154.39-6.7L154.39-6.7Q154.44-6.8 154.44-7.15L154.44-7.15Q154.44-8.05 153.69-8.4L153.69-8.4Q153.29-8.65 152.69-8.65L152.69-8.65Q151.94-8.65 151.17-8.18 150.39-7.7 149.54-6.95L149.54-6.95Q150.59-6.6 152.69-6.6ZM147.79-0.9L147.79-0.9Q148.29-0.9 149.22-1.38 150.14-1.85 151.14-2.65 152.14-3.45 152.94-4.35L152.94-4.35Q153.19-4.6 153.44-4.98 153.69-5.35 153.99-5.75L153.99-5.75 152.79-5.6Q149.99-5.2 147.79-5.15L147.79-5.15Q146.69-3.35 146.44-2.15L146.44-2.15Q146.39-1.5 146.79-1.2 147.19-0.9 147.79-0.9ZM156.69-7.4L156.69-7.4Q155.64-7.4 154.74-8.1L154.74-8.1Q154.64-8.2 154.52-8.43 154.39-8.65 154.59-8.55L154.59-8.55Q154.84-8.5 155.24-8.43 155.64-8.35 156.04-8.35L156.04-8.35Q156.29-8.35 156.47-8.38 156.64-8.4 156.84-8.45L156.84-8.45Q157.34-8.55 157.57-8.93 157.79-9.3 157.79-9.75L157.79-9.75Q157.79-10.25 157.69-10.58 157.59-10.9 157.49-11.1L157.49-11.1Q157.49-11.15 157.47-11.28 157.44-11.4 157.44-11.5L157.44-11.5Q157.44-11.95 157.74-11.95L157.74-11.95Q158.49-11.95 158.89-11.13 159.29-10.3 159.29-9.6L159.29-9.6Q159.29-8.65 158.49-8.03 157.69-7.4 156.69-7.4ZM156.94-12.4L156.94-12.4Q156.59-12.4 155.34-13.2L155.34-13.2Q154.44-13.8 153.54-14.4 152.64-15 151.79-15.65L151.79-15.65Q151.74-15.7 151.74-15.85L151.74-15.85Q151.74-16.1 151.99-16.45 152.24-16.8 152.49-16.8L152.49-16.8Q152.69-16.8 152.82-16.78 152.94-16.75 153.14-16.55L153.14-16.55Q154.04-15.75 155.17-14.68 156.29-13.6 157.09-12.75L157.09-12.75Q157.19-12.65 157.19-12.55L157.19-12.55Q157.19-12.4 156.94-12.4ZM162.51-10.95L162.51-10.95Q161.86-10.95 161.86-11.25L161.86-11.25Q161.86-11.5 162.24-11.98 162.61-12.45 163.11-12.8L163.11-12.8Q164.21-13.5 164.84-14 165.46-14.5 166.36-15.7L166.36-15.7Q166.41-15.6 166.41-15.3L166.41-15.3Q166.41-14.65 165.89-13.73 165.36-12.8 164.71-12.05 164.06-11.3 163.56-11.1L163.56-11.1Q163.11-10.95 162.51-10.95ZM158.06 1.3L158.06 1.3Q157.66 1.3 157.31 1 156.96 0.7 156.96 0.2L156.96 0.2Q156.96-0.85 158.41-3.65L158.41-3.65 158.96-4.75Q159.06-4.85 159.24-5.25 159.41-5.65 159.76-6.3L159.76-6.3Q160.11-7 160.31-7.55 160.51-8.1 160.61-8.6L160.61-8.6Q160.61-8.65 160.81-8.8 161.01-8.95 161.21-9.05L161.21-9.05 161.51-9.1Q161.91-9.1 162.19-8.95 162.46-8.8 162.36-8.55L162.36-8.55Q162.01-7.8 161.76-7.25 161.51-6.7 161.36-6.3L161.36-6.3 161.31-6.3Q160.76-5.05 160.39-3.93 160.01-2.8 160.06-1.8L160.06-1.8 160.11-0.45Q160.06 0.05 159.76 0.4L159.76 0.4Q159.56 0.55 159.21 0.78 158.86 1 158.31 1.25L158.31 1.25Q158.26 1.3 158.06 1.3ZM173.5 2.25L173.5 2.25Q172.35 2.25 172.35 1L172.35 1Q172.35 0.05 172.85-1L172.85-1 176.4-8.75Q176.8-9.6 177.5-11.03 178.2-12.45 179.2-14.5L179.2-14.5Q179.3-14.7 179.42-14.95 179.55-15.2 179.7-15.45L179.7-15.45Q180-16 180.3-16.65L180.3-16.65 180.9-17.9Q181.85-19.9 182.57-21.08 183.3-22.25 184.2-22.85L184.2-22.85Q185.35-23.55 185.65-23.55L185.65-23.55Q186-23.55 186.4-22.85L186.4-22.85Q186.4-22.8 186.42-22.8 186.45-22.8 186.45-22.75L186.45-22.75Q186.45-22.45 186-21.75L186-21.75Q185.7-21.3 185.17-20.53 184.65-19.75 183.9-18.65L183.9-18.65Q181.15-14.7 179.22-11.5 177.3-8.3 176-5.05L176-5.05Q177.25-6.15 178.67-7.25 180.1-8.35 181.1-8.95L181.1-8.95Q182.5-9.75 183.55-9.75L183.55-9.75Q185.15-9.75 185.15-7.65L185.15-7.65Q185.15-5.35 183.8-3.48 182.45-1.6 180.07-0.23 177.7 1.15 174.7 2L174.7 2Q174.05 2.25 173.5 2.25ZM174.65 0.4L175.25 0.45Q177.1 0.45 178.95-0.8L178.95-0.8Q180.8-2 181.97-3.73 183.15-5.45 183.15-6.8L183.15-6.8Q183.15-7.65 182.6-8.2L182.6-8.2Q182.15-8.3 180.85-7.58 179.55-6.85 178.07-5.68 176.6-4.5 175.45-3.25L175.45-3.25Q174.45-0.2 174.65 0.4L174.65 0.4ZM194.37 1.35L194.37 1.35Q194.27 1.35 194.17 1.33 194.07 1.3 193.97 1.25L193.97 1.25Q193.27 0.9 193.07 0.25 192.87-0.4 192.97-1.4L192.97-1.4Q193.07-1.8 193.19-2.8 193.32-3.8 193.52-4.4L193.52-4.4 190.97-1.95 189.57-0.6Q188.12 0.85 187.17 0.85L187.17 0.85Q186.77 0.85 186.52 0.55L186.52 0.55Q186.07 0 186.07-0.8L186.07-0.8Q186.07-1.85 186.62-3.05 187.17-4.25 187.92-5.38 188.67-6.5 189.27-7.25L189.27-7.25Q190.77-9.1 192.19-10.15 193.62-11.2 195.17-11.2L195.17-11.2Q196.02-11.2 196.84-10.9 197.67-10.6 198.37-9.9L198.37-9.9 198.42-9.85Q198.42-9.7 198.17-9.55L198.17-9.55Q198.07-9.45 197.99-9.4 197.92-9.35 197.87-9.3L197.87-9.3Q197.27-8.7 196.52-7.3 195.77-5.9 195.22-4.38 194.67-2.85 194.67-1.75L194.67-1.75Q194.67-0.75 195.17-0.4L195.17-0.4Q195.42-0.25 195.72-0.25L195.72-0.25Q196.37-0.25 197.52-1.05L197.52-1.05Q197.57-1.1 197.74-1.23 197.92-1.35 198.27-1.6L198.27-1.6Q198.67-1.9 198.92-1.9L198.92-1.9Q199.17-1.9 199.17-1.7L199.17-1.7Q199.17-1.4 198.77-1L198.77-1Q198.47-0.75 198.09-0.45 197.72-0.15 197.22 0.15L197.22 0.15Q196.47 0.7 195.67 1.03 194.87 1.35 194.37 1.35ZM188.72-1.85L188.72-1.85Q189.77-1.85 192.62-4.95L192.62-4.95Q193.37-5.8 193.97-6.58 194.57-7.35 195.07-8.1L195.07-8.1Q195.97-9.55 195.67-10.1L195.67-10.1Q195.52-10.4 195.07-10.4L195.07-10.4Q194.52-10.4 193.57-9.83 192.62-9.25 191.64-8.35 190.67-7.45 189.87-6.55L189.87-6.55Q189.32-5.85 188.77-4.6 188.22-3.35 188.22-2.55L188.22-2.55Q188.22-1.85 188.72-1.85ZM195.17-13.4L195.17-13.4Q194.92-13.4 194.92-13.55L194.92-13.55Q194.92-13.65 195.02-13.75L195.02-13.75Q195.87-14.6 196.97-15.68 198.07-16.75 198.97-17.55L198.97-17.55Q199.17-17.75 199.29-17.78 199.42-17.8 199.62-17.8L199.62-17.8Q199.97-17.8 200.24-17.3 200.52-16.8 200.32-16.65L200.32-16.65Q199.47-16 198.57-15.4 197.67-14.8 196.77-14.2L196.77-14.2Q195.52-13.4 195.17-13.4ZM202.23 0.8L202.23 0.8Q201.33 0.8 201.33 0.1L201.33 0.1Q201.33-0.35 201.66-1.05 201.98-1.75 202.33-2.4L202.33-2.4Q203.28-4.1 204.08-5.7 204.88-7.3 205.63-9.1L205.63-9.1Q205.98-9.9 206.68-9.9L206.68-9.9Q207.43-9.9 207.13-9L207.13-9Q206.83-8.25 206.53-7.65L206.53-7.65Q205.13-4.8 205.13-3.8L205.13-3.8Q205.13-3.35 205.43-3.25L205.43-3.25Q206.13-3.8 206.48-4.08 206.83-4.35 206.88-4.4L206.88-4.4Q207.58-4.95 208.46-5.68 209.33-6.4 210.38-7.35L210.38-7.35Q212.03-8.85 213.13-8.85L213.13-8.85Q214.48-8.85 214.28-6.4L214.28-6.4Q214.23-5.45 214.28-4.55L214.28-4.55Q214.33-4.35 214.33-3.98 214.33-3.6 214.33-3.1L214.33-3.1Q214.33-2.6 214.93-2.6L214.93-2.6Q215.63-2.6 216.23-3L216.23-3 217.33-3.75 218.43-4.45Q218.53-4.5 218.78-4.5L218.78-4.5Q219.08-4.5 218.78-4.05L218.78-4.05Q215.63-0.15 213.58-0.15L213.58-0.15Q213.18-0.15 212.78-0.3L212.78-0.3Q212.43-0.45 212.28-1.18 212.13-1.9 212.11-2.75 212.08-3.6 212.08-4.05L212.08-4.05 212.13-5.7Q212.13-6.75 211.58-6.75L211.58-6.75Q210.28-6.75 205.18-1.4L205.18-1.4Q204.78-0.9 203.93-0.05 203.08 0.8 202.23 0.8Z" opacity="1" transform="matrix(1,0,0,1,0,0)" fill="black" class="slogan-text-1" id="SvgjsPath1314" stroke-width="5" stroke="black" stroke-linejoin="round"></path></svg></g></svg></g></svg></g></svg></g></svg></g></svg></g></svg></g></mask><g mask="url(#847fa6fc-ee60-46d3-b377-29dd310ac391)"><g><path d="M207.38 247.2h-69.433v-247.2h119.626v46.428h-50.193v48.102h46.01v52.284h-46.01zM169.736 121.718l1.673 102.477h2.091l1.673-101.641 54.794-0.418v-0.836l-54.794-0.419-1.673-96.203 66.924-0.418v-0.837l-69.015-0.418z" fill="#556970" fill-rule="nonzero" stroke="none" stroke-width="1" stroke-linecap="butt" stroke-linejoin="miter" stroke-miterlimit="10" stroke-dasharray="" stroke-dashoffset="0" font-family="none" font-weight="none" font-size="none" text-anchor="none" style="mix-blend-mode: normal" data-fill-palette-color="tertiary"></path></g></g><g transform="matrix(1,0,0,1,60.62363707787122,37.08)"><svg viewBox="0 0 274.27272584425754 173.04" height="173.04" width="274.27272584425754"><g><svg viewBox="0 0 274.27272584425754 173.04" height="173.04" width="274.27272584425754"><g><svg viewBox="0 0 395.52 249.53549642724323" height="173.04" width="274.27272584425754"><g><svg viewBox="0 0 395.52 249.53549642724323" height="249.53549642724323" width="395.52"><g id="textblocktransform"><svg viewBox="0 0 395.52 249.53549642724323" height="249.53549642724323" width="395.52" id="textblock"><g><svg viewBox="0 0 395.52 150.72518918918917" height="150.72518918918917" width="395.52"><g transform="matrix(1,0,0,1,0,0)"><svg width="395.52" viewBox="-1.75 -32.55 93.49 36.25" height="150.72518918918917" data-palette-color="#556970"><path d="M9.55 0L1.25 0 1.25-29.55 15.55-29.55 15.55-24 9.55-24 9.55-18.25 15.05-18.25 15.05-12 9.55-12 9.55 0ZM5.05-15L5.25-2.75 5.5-2.75 5.7-14.9 12.25-14.95 12.25-15.05 5.7-15.1 5.5-26.6 13.5-26.65 13.5-26.75 5.25-26.8 5.05-15ZM25.35 0L17.55 0 17.55-24.75 24.2-24.75 24.8-21.5Q25.25-23.05 26.5-24.08 27.75-25.1 29.35-25.1L29.35-25.1Q32.65-25.1 33.75-23.45 34.85-21.8 34.85-18.55L34.85-18.55 34.85 0 27.05 0 27.05-18.25Q27.05-19.65 26.2-19.65L26.2-19.65Q26-19.65 25.75-19.63 25.5-19.6 25.35-19.5L25.35-19.5 25.35 0ZM30.6-12.25L30.8-2.35 31-2.35 31.25-12.25 31.1-19.95Q31.05-21.1 30.5-21.78 29.95-22.45 28.9-22.45L28.9-22.45Q27.65-22.45 26.75-21.7L26.75-21.7 26.75-21.6Q27.75-22.35 28.9-22.35L28.9-22.35Q30-22.35 30.42-21.5 30.85-20.65 30.8-19.95L30.8-19.95 30.6-12.25ZM21.15-12L21.35-2.35 21.55-2.35 21.8-12 21.6-21.45 21.4-21.45 21.15-12ZM45.49 0.6L45.49 0.6Q42.55 0.6 40.62-0.08 38.7-0.75 37.77-2.68 36.84-4.6 36.84-8.3L36.84-8.3 36.84-18.65Q36.84-22.35 39.09-23.75 41.34-25.15 45.49-25.15L45.49-25.15Q49.64-25.15 51.89-23.75 54.14-22.35 54.14-18.65L54.14-18.65 54.14-11.65 44.64-11.65 44.64-4.9Q44.64-4.05 44.87-3.73 45.09-3.4 45.49-3.4L45.49-3.4Q45.89-3.4 46.12-3.73 46.34-4.05 46.34-4.9L46.34-4.9 46.34-9.4 54.14-9.4 54.14-8.35Q54.14-4.65 53.22-2.7 52.3-0.75 50.39-0.08 48.49 0.6 45.49 0.6ZM49.99-19.1L49.99-13.35 50.39-13.35 50.39-19.1Q50.39-20.75 49.52-21.83 48.64-22.9 46.84-22.9L46.84-22.9 46.84-22.8Q48.59-22.8 49.3-21.73 49.99-20.65 49.99-19.1L49.99-19.1ZM43.64-1.65L43.64-1.65 43.64-1.75Q42.55-1.75 41.64-2.7 40.74-3.65 40.8-5.1L40.8-5.1 40.95-12.25 40.8-19.45Q40.74-20.9 41.92-21.83 43.09-22.75 44.49-22.75L44.49-22.75 44.49-22.85Q42.74-22.85 41.59-21.93 40.45-21 40.39-19.15L40.39-19.15 40.24-12.25 40.39-5.15Q40.45-3.6 41.49-2.63 42.55-1.65 43.64-1.65ZM44.64-19.65L44.64-15 46.34-15 46.34-19.65Q46.34-20.5 46.12-20.83 45.89-21.15 45.49-21.15L45.49-21.15Q45.09-21.15 44.87-20.83 44.64-20.5 44.64-19.65L44.64-19.65ZM46.45-1.75L46.45-1.65Q48.24-1.65 49.32-2.83 50.39-4 50.39-5.65L50.39-5.65 50.39-8.2 49.99-8.2 49.99-5.65Q49.99-4.1 49.09-2.93 48.2-1.75 46.45-1.75L46.45-1.75ZM64.39 0.7L64.39 0.7Q59.39 0.7 57.49-1.15 55.59-3 55.59-7.2L55.59-7.2 55.59-8.9 63.44-8.9 63.44-5.45Q63.44-4.5 63.59-3.95L63.59-3.95Q63.74-3.4 64.29-3.4L64.29-3.4Q64.79-3.4 64.97-3.8 65.14-4.2 65.14-4.75L65.14-4.75 65.14-7.05Q65.14-8.35 64.62-8.95 64.09-9.55 63.14-9.9 62.19-10.25 60.99-10.75L60.99-10.75Q59.09-11.45 57.67-12.8 56.24-14.15 56.24-16.75L56.24-16.75 56.24-18.15Q56.24-21.95 58.27-23.6 60.29-25.25 65.04-25.25L65.04-25.25Q69.84-25.25 71.67-23.45 73.49-21.65 73.49-17.65L73.49-17.65 73.49-16.05 65.94-16.05 65.94-19.2Q65.94-20.2 65.79-20.7L65.79-20.7Q65.64-21.15 65.09-21.15L65.09-21.15Q64.54-21.15 64.39-20.78 64.24-20.4 64.24-19.85L64.24-19.85 64.24-17.5Q64.24-16.35 64.92-15.78 65.59-15.2 66.62-14.9 67.64-14.6 68.69-14.2L68.69-14.2Q70.64-13.55 72.07-12.25 73.49-10.95 73.49-8.5L73.49-8.5 73.49-6.7Q73.49-2.7 71.39-1 69.29 0.7 64.39 0.7ZM64.44-1.45L64.44-1.45Q64.89-1.45 65.49-1.48 66.09-1.5 66.49-1.6L66.49-1.6Q68.09-1.95 68.79-3.33 69.49-4.7 69.49-7.1L69.49-7.1Q69.49-9.2 68.62-10.38 67.74-11.55 65.99-12.2L65.99-12.2 64.74-12.65 63.44-13.25Q61.74-14.05 61.19-15.25 60.64-16.45 60.64-18.3L60.64-18.3Q60.64-20.5 61.22-21.58 61.79-22.65 63.29-22.95L63.29-22.95Q63.64-23.05 64.09-23.08 64.54-23.1 64.94-23.1L64.94-23.1 65.69-23.1Q65.89-23.1 66.04-23.08 66.19-23.05 66.34-23L66.34-23Q67.99-22.75 68.67-21.65 69.34-20.55 69.34-18.3L69.34-18.3 69.44-18.3Q69.59-20.7 68.89-21.78 68.19-22.85 66.34-23.1L66.34-23.1Q66.04-23.15 65.69-23.18 65.34-23.2 64.94-23.2L64.94-23.2Q64.54-23.2 64.09-23.18 63.64-23.15 63.29-23.1L63.29-23.1Q61.59-22.8 60.82-21.7 60.04-20.6 60.04-18.3L60.04-18.3Q60.04-16.35 60.84-15.03 61.64-13.7 63.39-13.05L63.39-13.05 64.74-12.55 65.94-12.05Q67.69-11.35 68.32-10.23 68.94-9.1 68.94-7.1L68.94-7.1Q68.94-4.85 68.42-3.43 67.89-2 66.44-1.75L66.44-1.75Q66.09-1.65 65.49-1.58 64.89-1.5 64.44-1.5L64.44-1.5Q64.04-1.5 63.42-1.55 62.79-1.6 62.49-1.7L62.49-1.7Q60.89-2 60.27-3.38 59.64-4.75 59.64-7.15L59.64-7.15 59.49-7.15Q59.39-4.6 60.04-3.2 60.69-1.8 62.44-1.55L62.44-1.55Q62.74-1.5 63.39-1.48 64.04-1.45 64.44-1.45ZM84.24 0.5L84.24 0.5Q82.29 0.5 80.59 0.08 78.89-0.35 77.81-1.65 76.74-2.95 76.74-5.5L76.74-5.5 76.74-20.25 74.29-20.25 74.29-23.6 77.44-24.75 78.49-29.25 84.54-29.25 84.54-24.75 88.74-24.75 88.74-20.25 84.54-20.25 84.54-6.85Q84.54-6.1 84.86-5.38 85.19-4.65 86.39-4.65L86.39-4.65 87.09-4.65Q87.29-4.65 87.47-4.65 87.64-4.65 87.84-4.7L87.84-4.7 88.74-4.8 88.74-0.2Q88.39-0.1 88.06-0.03 87.74 0.05 87.34 0.15L87.34 0.15Q86.69 0.3 85.89 0.4 85.09 0.5 84.24 0.5ZM83.44-2.1L83.44-2.1 83.44-2.15Q82.14-2.25 81.34-3.15 80.54-4.05 80.59-5.8L80.59-5.8 80.79-14.75 80.64-22.2 86.44-22.35 86.44-22.45 80.64-22.55 80.59-26 80.39-26 80.29-22.55 76.09-22.45 76.09-22.35 80.29-22.2 80.14-14.75 80.29-5.65Q80.34-4.35 81.09-3.23 81.84-2.1 83.44-2.1Z" opacity="1" transform="matrix(1,0,0,1,0,0)" fill="#556970" class="wordmark-text-0" data-fill-palette-color="primary" id="text-0"></path></svg></g></svg></g><g transform="matrix(1,0,0,1,2.5,169.59983545427025)"><svg viewBox="0 0 390.52 79.93566097297297" height="79.93566097297297" width="390.52"><g transform="matrix(1,0,0,1,0,0)"><svg width="390.52" viewBox="-3.4 -33.15 225.33 46.9" height="79.93566097297297" data-palette-color="#556970"><path d="M6.35 4.95L6.35 4.95Q3.25 4.95 1.43 3.13-0.4 1.3-0.4-1.8L-0.4-1.8Q-0.4-3.95 0.25-6.28 0.9-8.6 2.15-11.1L2.15-11.1Q3.75-14.3 6.03-16.88 8.3-19.45 11.03-20.95 13.75-22.45 16.65-22.45L16.65-22.45Q18.55-22.45 19.43-21.53 20.3-20.6 20.3-19.1L20.3-19.1Q20.3-17.8 19.75-16.23 19.2-14.65 18.43-13.33 17.65-12 16.85-11.3L16.85-11.3Q16.65-11.1 16.4-11.1L16.4-11.1Q16.15-11.1 16.15-11.35L16.15-11.35Q16.15-11.7 16.5-12.05L16.5-12.05Q17.35-12.8 18.05-14.45 18.75-16.1 18.75-17.6L18.75-17.6Q18.75-18.9 18.15-19.68 17.55-20.45 16.25-20.45L16.25-20.45Q12.65-20.45 9.25-17.35L9.25-17.35Q7-15.3 5.2-12.6 3.4-9.9 2.3-7.13 1.2-4.35 0.95-2.05L0.95-2.05Q0.8-0.3 1.53 1.18 2.25 2.65 3.6 3.48 4.95 4.3 6.65 4.15L6.65 4.15Q11.2 3.75 15.55-0.03 19.9-3.8 24.75-10.45L24.75-10.45Q24.15-11.05 23.95-11.9L23.95-11.9Q23.85-12.7 24.28-13.18 24.7-13.65 25.35-13.65L25.35-13.65Q26.2-13.65 26.7-13.15L26.7-13.15Q27.55-14.65 29.85-18.55L29.85-18.55Q30.15-19.05 30.88-20.28 31.6-21.5 32.45-23.03 33.3-24.55 34-25.9L34-25.9Q34.05-25.95 34.05-26.1L34.05-26.1Q34.05-26.2 33.8-26.55L33.8-26.55Q33.45-26.8 33.7-27.1L33.7-27.1 35-29.75Q35.25-30.15 35.85-30.15L35.85-30.15Q36.45-30.15 36.98-29.85 37.5-29.55 37.45-29.2L37.45-29.2Q36.9-26.9 34.63-22.93 32.35-18.95 28.75-13.5L28.75-13.5Q28.15-12.6 27.75-12.2L27.75-12.2 27.65-12.1Q27.5-11.95 27.55-11.7L27.55-11.7 27.65-10.95Q28.4-10.7 28.75-10.7L28.75-10.7Q30.45-10.7 32.35-11.28 34.25-11.85 36.02-12.75 37.8-13.65 39.05-14.55L39.05-14.55Q42.25-16.9 44.48-19.38 46.7-21.85 48.3-24.7L48.3-24.7Q48.55-25.3 48.55-26.15L48.55-26.15Q48.65-26.7 48.83-27.2 49-27.7 49.25-28.05L49.25-28.05Q49.45-28.4 50.05-28.4L50.05-28.4Q50.65-28.4 51.13-28.08 51.6-27.75 51.5-27.3L51.5-27.3Q51.05-25.5 49.3-23.05 47.55-20.6 45.08-18.1 42.6-15.6 39.85-13.6L39.85-13.6Q38.45-12.55 36.52-11.63 34.6-10.7 32.55-10.13 30.5-9.55 28.6-9.55L28.6-9.55 28.05-9.55Q28.45-7.7 29-6.3 29.55-4.9 30.55-3.45L30.55-3.45Q31.6-2 32.7-1.07 33.8-0.15 35.25-0.15L35.25-0.15Q36.2-0.15 37.35-0.48 38.5-0.8 38.8-1.3L38.8-1.3Q39.1-1.75 39.55-1.75L39.55-1.75Q39.9-1.75 39.9-1.5L39.9-1.5Q39.9-1.35 39.75-1.1L39.75-1.1Q39.3-0.45 38.27 0.43 37.25 1.3 36.2 1.93 35.15 2.55 34.45 2.55L34.45 2.55Q32.55 2.4 31.25 1.35 29.95 0.3 28.75-2.05L28.75-2.05Q28-3.65 27.25-6.15L27.25-6.15 26.7-8Q26.6-8.55 26.45-9 26.3-9.45 26.2-9.8L26.2-9.8 25.95-9.9Q20.85-3 15.85 0.95 10.85 4.9 6.35 4.95ZM43.47 0.55L43.47 0.55Q42.42 0.55 41.62 0L41.62 0Q40.32-1 40.32-3L40.32-3Q40.32-5 41.72-7.25 43.12-9.5 45.97-11.4L45.97-11.4Q46.47-11.75 47.32-11.75L47.32-11.75Q48.42-11.75 49.29-11.15 50.17-10.55 49.97-9.6L49.97-9.6Q49.62-8.05 48.44-6.85 47.27-5.65 45.69-4.73 44.12-3.8 42.47-2.95L42.47-2.95Q42.42-2.8 42.39-2.65 42.37-2.5 42.37-2.35L42.37-2.35Q42.37-1.65 42.84-1.13 43.32-0.6 44.17-0.6L44.17-0.6Q44.82-0.6 45.27-0.8L45.27-0.8Q46.07-1.1 46.59-1.35 47.12-1.6 47.82-2.1 48.52-2.6 49.72-3.6L49.72-3.6Q50.27-4 50.37-4L50.37-4Q50.67-4 50.57-3.55L50.57-3.55Q50.07-2.75 48.84-1.8 47.62-0.85 46.14-0.15 44.67 0.55 43.47 0.55ZM42.77-4.3L42.77-4.3Q43.17-4.3 44.42-5.1 45.67-5.9 46.77-6.85L46.77-6.85Q48.67-8.6 48.67-9.55L48.67-9.55Q48.67-9.8 48.52-10L48.52-10Q48.37-10.25 48.07-10.25L48.07-10.25Q47.12-10.25 44.87-8L44.87-8Q43.32-6.5 42.77-4.3ZM51.87-13.05L51.87-13.05Q51.42-13.1 50.97-13.6 50.52-14.1 50.17-14.73 49.82-15.35 49.67-15.75L49.67-15.75Q48.87-15.35 47.69-14.73 46.52-14.1 45.49-13.63 44.47-13.15 44.02-13.15L44.02-13.15Q43.82-13.15 43.82-13.35L43.82-13.35Q43.82-13.45 43.94-13.55 44.07-13.65 44.22-13.75L44.22-13.75Q44.62-14.05 45.47-14.63 46.32-15.2 47.32-15.85 48.32-16.5 49.14-16.95 49.97-17.4 50.27-17.4L50.27-17.4Q50.92-17.4 51.02-16.9L51.02-16.9Q51.22-16.1 51.67-15.05 52.12-14 52.32-13.6L52.32-13.6Q52.37-13.55 52.37-13.4L52.37-13.4Q52.37-13.25 52.19-13.15 52.02-13.05 51.87-13.05ZM51.69 0.8L51.69 0.8Q50.79 0.8 50.79 0.1L50.79 0.1Q50.79-0.35 51.11-1.05 51.44-1.75 51.79-2.4L51.79-2.4Q52.74-4.1 53.54-5.7 54.34-7.3 55.09-9.1L55.09-9.1Q55.44-9.9 56.14-9.9L56.14-9.9Q56.89-9.9 56.59-9L56.59-9Q56.29-8.25 55.99-7.65L55.99-7.65Q54.59-4.8 54.59-3.8L54.59-3.8Q54.59-3.35 54.89-3.25L54.89-3.25Q55.59-3.8 55.94-4.08 56.29-4.35 56.34-4.4L56.34-4.4Q57.04-4.95 57.91-5.68 58.79-6.4 59.84-7.35L59.84-7.35Q61.49-8.85 62.59-8.85L62.59-8.85Q63.94-8.85 63.74-6.4L63.74-6.4Q63.69-5.45 63.74-4.55L63.74-4.55Q63.79-4.35 63.79-3.98 63.79-3.6 63.79-3.1L63.79-3.1Q63.79-2.6 64.39-2.6L64.39-2.6Q65.09-2.6 65.69-3L65.69-3 66.79-3.75 67.89-4.45Q67.99-4.5 68.24-4.5L68.24-4.5Q68.54-4.5 68.24-4.05L68.24-4.05Q65.09-0.15 63.04-0.15L63.04-0.15Q62.64-0.15 62.24-0.3L62.24-0.3Q61.89-0.45 61.74-1.18 61.59-1.9 61.56-2.75 61.54-3.6 61.54-4.05L61.54-4.05 61.59-5.7Q61.59-6.75 61.04-6.75L61.04-6.75Q59.74-6.75 54.64-1.4L54.64-1.4Q54.24-0.9 53.39-0.05 52.54 0.8 51.69 0.8ZM69.05 2.95L68.9 2.95Q67.85 2.95 68 1.9L68 1.9Q68.3 0 69.05-1.9L69.05-1.9Q69.45-2.9 70.08-4.2 70.7-5.5 71.55-7.1L71.55-7.1Q72-7.95 72.33-8.6 72.65-9.25 72.85-9.65L72.85-9.65Q73.2-10.35 73.58-11.15 73.95-11.95 74.35-12.9L74.35-12.9Q76.25-17.05 77.63-19.43 79-21.8 80.6-22.8L80.6-22.8Q80.7-22.9 81.15-22.83 81.6-22.75 82.03-22.6 82.45-22.45 82.55-22.25L82.55-22.25Q82.7-21.9 82.7-21.25L82.7-21.25Q82.7-19.25 80.85-16.45L80.85-16.45Q79.85-14.95 78.33-13.18 76.8-11.4 74.75-9.35L74.75-9.35 73.85-7.9Q72.35-5.5 71.53-3.8 70.7-2.1 70.9-0.8L70.9-0.8Q71-0.5 71.15-0.5L71.15-0.5Q71.3-0.5 71.65-0.75L71.65-0.75Q72-1 72.38-1.35 72.75-1.7 73.1-2.2L73.1-2.2Q73.35-2.45 73.53-2.75 73.7-3.05 73.9-3.3L73.9-3.3Q74.2-3.85 74.5-4.2L74.5-4.2Q75.45-5.8 76.1-6.45L76.1-6.45Q77.2-7.55 78.05-7.55L78.05-7.55Q79.05-7.55 79.83-6.48 80.6-5.4 81.5-3.4L81.5-3.4Q82.15-1.9 82.7-1.1L82.7-1.1Q83.25-0.35 83.75-0.35L83.75-0.35Q84.25-0.35 84.9-0.95L84.9-0.95Q85.5-1.5 85.95-1.55L85.95-1.55Q86.25-1.2 85.9-0.68 85.55-0.15 84.88 0.33 84.2 0.8 83.55 1.1 82.9 1.4 82.55 1.3L82.55 1.3Q81.15 0.9 80.38-0.13 79.6-1.15 78.85-2.8L78.85-2.8Q78.6-3.35 78.4-3.78 78.2-4.2 78-4.45L78-4.45Q77.65-4.95 77.05-4.95L77.05-4.95Q76.6-4.95 76-4.5L76-4.5Q75.4-4 74.8-3.33 74.2-2.65 73.65-1.7L73.65-1.7Q73.3-1.2 73.13-0.93 72.95-0.65 72.85-0.55L72.85-0.55Q72.6-0.2 72.08 0.48 71.55 1.15 70.85 2.15L70.85 2.15Q70.6 2.45 70.08 2.7 69.55 2.95 69.05 2.95L69.05 2.95ZM75-11.4L75-11.4Q75.15-11.3 75.75-11.88 76.35-12.45 77.13-13.38 77.9-14.3 78.68-15.33 79.45-16.35 79.9-17.15L79.9-17.15Q81.45-19.8 81.45-20.65L81.45-20.65Q81.45-21 81.2-21.15L81.2-21.15Q80.7-21.55 79.85-20.73 79-19.9 78.15-18.57 77.3-17.25 76.7-15.95L76.7-15.95Q76.35-15.15 75.98-14.15 75.6-13.15 75.35-12.38 75.1-11.6 75-11.4ZM97.84 0.8L97.84 0.8Q96.94 0.8 96.94 0.1L96.94 0.1Q96.94-0.35 97.26-1.05 97.59-1.75 97.94-2.4L97.94-2.4Q98.89-4.1 99.69-5.7 100.49-7.3 101.24-9.1L101.24-9.1Q101.59-9.9 102.29-9.9L102.29-9.9Q103.04-9.9 102.74-9L102.74-9Q102.44-8.25 102.14-7.65L102.14-7.65Q100.74-4.8 100.74-3.8L100.74-3.8Q100.74-3.35 101.04-3.25L101.04-3.25Q101.74-3.8 102.09-4.08 102.44-4.35 102.49-4.4L102.49-4.4Q103.19-4.95 104.06-5.68 104.94-6.4 105.99-7.35L105.99-7.35Q107.64-8.85 108.74-8.85L108.74-8.85Q110.09-8.85 109.89-6.4L109.89-6.4Q109.84-5.45 109.89-4.55L109.89-4.55Q109.94-4.35 109.94-3.98 109.94-3.6 109.94-3.1L109.94-3.1Q109.94-2.6 110.54-2.6L110.54-2.6Q111.24-2.6 111.84-3L111.84-3 112.94-3.75 114.04-4.45Q114.14-4.5 114.39-4.5L114.39-4.5Q114.69-4.5 114.39-4.05L114.39-4.05Q111.24-0.15 109.19-0.15L109.19-0.15Q108.79-0.15 108.39-0.3L108.39-0.3Q108.04-0.45 107.89-1.18 107.74-1.9 107.71-2.75 107.69-3.6 107.69-4.05L107.69-4.05 107.74-5.7Q107.74-6.75 107.19-6.75L107.19-6.75Q105.89-6.75 100.79-1.4L100.79-1.4Q100.39-0.9 99.54-0.05 98.69 0.8 97.84 0.8ZM115.31 10.75L115.31 10.75Q114.21 10.75 113.48 9.73 112.76 8.7 112.76 7.4L112.76 7.4Q112.76 6.35 113.06 5.85L113.06 5.85Q113.46 5.3 113.81 5.3L113.81 5.3Q114.21 5.3 114.21 5.75L114.21 5.75Q114.21 6.15 113.91 6.55L113.91 6.55Q113.71 6.8 113.71 7.2L113.71 7.2Q113.71 7.95 114.21 8.7 114.71 9.45 115.41 9.45L115.41 9.45Q115.51 9.45 115.61 9.43 115.71 9.4 115.86 9.35L115.86 9.35Q118.21 8.45 120.16 5.6L120.16 5.6Q122.11 2.7 123.36-0.78 124.61-4.25 125.21-7.2L125.21-7.2 125.01-7.25Q124.86-7.35 124.56-7.03 124.26-6.7 123.96-6.33 123.66-5.95 123.56-5.8L123.56-5.8Q123.41-5.6 122.78-4.93 122.16-4.25 121.31-3.43 120.46-2.6 119.61-1.8 118.76-1 118.16-0.5L118.16-0.5Q117.41 0.15 116.31 0.15L116.31 0.15Q116.01 0.15 115.71 0.05L115.71 0.05Q115.16-0.25 115.16-0.9L115.16-0.9Q115.16-1.75 116.16-3.5L116.16-3.5Q116.91-4.8 118.41-6.78 119.91-8.75 121.71-10.15L121.71-10.15Q123.01-11.2 124.41-11.5L124.41-11.5Q124.66-11.55 124.91-11.58 125.16-11.6 125.41-11.65L125.41-11.65Q125.66-11.65 125.86-11.65 126.06-11.65 126.26-11.7L126.26-11.7Q126.31-11.7 127.03-11.78 127.76-11.85 127.96-12.25L127.96-12.25 128.11-12.3Q128.31-12.3 128.51-12.1L128.51-12.1Q128.66-11.95 128.66-11.5L128.66-11.5Q128.66-11.35 128.61-11.13 128.56-10.9 128.56-10.6L128.56-10.6 128.56-10.55Q128.56-8.7 127.86-6.73 127.16-4.75 126.36-2.7L126.36-2.7Q124.71 1.45 122.18 5 119.66 8.55 116.61 10.35L116.61 10.35Q115.96 10.75 115.31 10.75ZM116.81-1.65L116.81-1.65Q117.01-1.55 117.11-1.55L117.11-1.55Q117.36-1.55 117.86-1.8L117.86-1.8Q118.21-2 118.58-2.3 118.96-2.6 119.46-3L119.46-3Q119.81-3.25 120.26-3.7 120.71-4.15 121.31-4.75L121.31-4.75 122.26-5.65Q122.96-6.35 123.76-7.3 124.56-8.25 125.11-9.15 125.66-10.05 125.66-10.55L125.66-10.55Q125.66-11 125.11-11L125.11-11Q124.56-11 123.63-10.4 122.71-9.8 121.73-8.95 120.76-8.1 120.06-7.3L120.06-7.3Q119.41-6.65 118.83-5.88 118.26-5.1 117.71-4.25L117.71-4.25Q117.06-3.3 116.81-2.6L116.81-2.6Q116.51-1.85 116.81-1.65ZM138.98 1.45L138.98 1.45Q137.68 1.45 137.68-0.45L137.68-0.45Q137.68-2.4 139.03-6.2L139.03-6.2Q137.43-4.15 135.85-2.58 134.28-1 132.73 0L132.73 0Q131.63 0.8 130.73 0.8L130.73 0.8Q129.53 0.8 129.53-0.85L129.53-0.85Q129.53-1.75 129.83-2.5L129.83-2.5Q130.23-3.6 131-5.05 131.78-6.5 132.83-7.95 133.88-9.4 134.98-10.4L134.98-10.4Q135.38-10.65 135.48-10.65L135.48-10.65Q135.83-10.65 135.83-10.25L135.83-10.25Q135.83-10.1 135.68-9.85L135.68-9.85Q135.23-9.35 134.63-8.4 134.03-7.45 133.48-6.35 132.93-5.25 132.55-4.33 132.18-3.4 132.18-2.95L132.18-2.95Q132.18-2.05 132.98-2.05L132.98-2.05Q133.33-2.05 133.73-2.3L133.73-2.3Q135.58-3.45 137.13-5.08 138.68-6.7 140.03-9.5L140.03-9.5Q140.48-9.8 141.03-9.8L141.03-9.8Q141.58-9.8 141.95-9.45 142.33-9.1 142.33-8.5L142.33-8.5Q142.33-8.05 142.08-7.45L142.08-7.45Q142.03-7.25 141.9-7.05 141.78-6.85 141.63-6.6L141.63-6.6Q141.48-6.35 141.38-6.13 141.28-5.9 141.18-5.75L141.18-5.75Q140.23-4.05 139.7-2.9 139.18-1.75 139.18-0.9L139.18-0.9Q139.18 0.1 140.08 0.1L140.08 0.1Q140.88 0.1 141.68-0.5L141.68-0.5Q142.18-0.85 142.53-0.85L142.53-0.85Q143.08-0.85 142.3-0.18 141.53 0.5 140.43 1.05L140.43 1.05Q139.38 1.45 138.98 1.45ZM143.38-7.55L143.38-7.55Q142.33-7.55 141.43-8.25L141.43-8.25Q141.33-8.35 141.2-8.58 141.08-8.8 141.28-8.7L141.28-8.7Q141.53-8.65 141.93-8.58 142.33-8.5 142.73-8.5L142.73-8.5Q142.98-8.5 143.15-8.53 143.33-8.55 143.53-8.6L143.53-8.6Q144.03-8.7 144.25-9.08 144.48-9.45 144.48-9.9L144.48-9.9Q144.48-10.4 144.38-10.73 144.28-11.05 144.18-11.25L144.18-11.25Q144.18-11.3 144.15-11.43 144.13-11.55 144.13-11.65L144.13-11.65Q144.13-12.1 144.43-12.1L144.43-12.1Q145.18-12.1 145.58-11.28 145.98-10.45 145.98-9.75L145.98-9.75Q145.98-8.8 145.18-8.18 144.38-7.55 143.38-7.55ZM146.29 0.85L146.29 0.85Q144.34 0.85 144.34-0.9L144.34-0.9Q144.34-1 144.37-1.25 144.39-1.5 144.44-1.85L144.44-1.85Q144.94-3.9 146.47-5.83 147.99-7.75 149.99-9.2L149.99-9.2Q150.74-9.8 152.39-9.8L152.39-9.8Q153.34-9.8 154.07-9.53 154.79-9.25 155.09-8.7L155.09-8.7Q155.39-8.2 155.39-7.55L155.39-7.55Q155.39-7.45 155.37-7.25 155.34-7.05 155.29-6.8L155.29-6.8Q155.39-6.85 155.62-6.85 155.84-6.85 156.19-6.9L156.19-6.9Q156.54-6.95 156.87-7 157.19-7.05 157.54-7.05L157.54-7.05 157.74-7.05Q158.29-7.05 157.87-6.63 157.44-6.2 156.74-6.1L156.74-6.1 155.04-5.9Q154.54-4.5 153.32-3.1 152.09-1.7 150.62-0.68 149.14 0.35 147.84 0.65L147.84 0.65Q147.09 0.85 146.29 0.85ZM152.69-6.6L152.69-6.6Q152.99-6.6 153.42-6.63 153.84-6.65 154.39-6.7L154.39-6.7Q154.44-6.8 154.44-7.15L154.44-7.15Q154.44-8.05 153.69-8.4L153.69-8.4Q153.29-8.65 152.69-8.65L152.69-8.65Q151.94-8.65 151.17-8.18 150.39-7.7 149.54-6.95L149.54-6.95Q150.59-6.6 152.69-6.6ZM147.79-0.9L147.79-0.9Q148.29-0.9 149.22-1.38 150.14-1.85 151.14-2.65 152.14-3.45 152.94-4.35L152.94-4.35Q153.19-4.6 153.44-4.98 153.69-5.35 153.99-5.75L153.99-5.75 152.79-5.6Q149.99-5.2 147.79-5.15L147.79-5.15Q146.69-3.35 146.44-2.15L146.44-2.15Q146.39-1.5 146.79-1.2 147.19-0.9 147.79-0.9ZM156.69-7.4L156.69-7.4Q155.64-7.4 154.74-8.1L154.74-8.1Q154.64-8.2 154.52-8.43 154.39-8.65 154.59-8.55L154.59-8.55Q154.84-8.5 155.24-8.43 155.64-8.35 156.04-8.35L156.04-8.35Q156.29-8.35 156.47-8.38 156.64-8.4 156.84-8.45L156.84-8.45Q157.34-8.55 157.57-8.93 157.79-9.3 157.79-9.75L157.79-9.75Q157.79-10.25 157.69-10.58 157.59-10.9 157.49-11.1L157.49-11.1Q157.49-11.15 157.47-11.28 157.44-11.4 157.44-11.5L157.44-11.5Q157.44-11.95 157.74-11.95L157.74-11.95Q158.49-11.95 158.89-11.13 159.29-10.3 159.29-9.6L159.29-9.6Q159.29-8.65 158.49-8.03 157.69-7.4 156.69-7.4ZM156.94-12.4L156.94-12.4Q156.59-12.4 155.34-13.2L155.34-13.2Q154.44-13.8 153.54-14.4 152.64-15 151.79-15.65L151.79-15.65Q151.74-15.7 151.74-15.85L151.74-15.85Q151.74-16.1 151.99-16.45 152.24-16.8 152.49-16.8L152.49-16.8Q152.69-16.8 152.82-16.78 152.94-16.75 153.14-16.55L153.14-16.55Q154.04-15.75 155.17-14.68 156.29-13.6 157.09-12.75L157.09-12.75Q157.19-12.65 157.19-12.55L157.19-12.55Q157.19-12.4 156.94-12.4ZM162.51-10.95L162.51-10.95Q161.86-10.95 161.86-11.25L161.86-11.25Q161.86-11.5 162.24-11.98 162.61-12.45 163.11-12.8L163.11-12.8Q164.21-13.5 164.84-14 165.46-14.5 166.36-15.7L166.36-15.7Q166.41-15.6 166.41-15.3L166.41-15.3Q166.41-14.65 165.89-13.73 165.36-12.8 164.71-12.05 164.06-11.3 163.56-11.1L163.56-11.1Q163.11-10.95 162.51-10.95ZM158.06 1.3L158.06 1.3Q157.66 1.3 157.31 1 156.96 0.7 156.96 0.2L156.96 0.2Q156.96-0.85 158.41-3.65L158.41-3.65 158.96-4.75Q159.06-4.85 159.24-5.25 159.41-5.65 159.76-6.3L159.76-6.3Q160.11-7 160.31-7.55 160.51-8.1 160.61-8.6L160.61-8.6Q160.61-8.65 160.81-8.8 161.01-8.95 161.21-9.05L161.21-9.05 161.51-9.1Q161.91-9.1 162.19-8.95 162.46-8.8 162.36-8.55L162.36-8.55Q162.01-7.8 161.76-7.25 161.51-6.7 161.36-6.3L161.36-6.3 161.31-6.3Q160.76-5.05 160.39-3.93 160.01-2.8 160.06-1.8L160.06-1.8 160.11-0.45Q160.06 0.05 159.76 0.4L159.76 0.4Q159.56 0.55 159.21 0.78 158.86 1 158.31 1.25L158.31 1.25Q158.26 1.3 158.06 1.3ZM173.5 2.25L173.5 2.25Q172.35 2.25 172.35 1L172.35 1Q172.35 0.05 172.85-1L172.85-1 176.4-8.75Q176.8-9.6 177.5-11.03 178.2-12.45 179.2-14.5L179.2-14.5Q179.3-14.7 179.42-14.95 179.55-15.2 179.7-15.45L179.7-15.45Q180-16 180.3-16.65L180.3-16.65 180.9-17.9Q181.85-19.9 182.57-21.08 183.3-22.25 184.2-22.85L184.2-22.85Q185.35-23.55 185.65-23.55L185.65-23.55Q186-23.55 186.4-22.85L186.4-22.85Q186.4-22.8 186.42-22.8 186.45-22.8 186.45-22.75L186.45-22.75Q186.45-22.45 186-21.75L186-21.75Q185.7-21.3 185.17-20.53 184.65-19.75 183.9-18.65L183.9-18.65Q181.15-14.7 179.22-11.5 177.3-8.3 176-5.05L176-5.05Q177.25-6.15 178.67-7.25 180.1-8.35 181.1-8.95L181.1-8.95Q182.5-9.75 183.55-9.75L183.55-9.75Q185.15-9.75 185.15-7.65L185.15-7.65Q185.15-5.35 183.8-3.48 182.45-1.6 180.07-0.23 177.7 1.15 174.7 2L174.7 2Q174.05 2.25 173.5 2.25ZM174.65 0.4L175.25 0.45Q177.1 0.45 178.95-0.8L178.95-0.8Q180.8-2 181.97-3.73 183.15-5.45 183.15-6.8L183.15-6.8Q183.15-7.65 182.6-8.2L182.6-8.2Q182.15-8.3 180.85-7.58 179.55-6.85 178.07-5.68 176.6-4.5 175.45-3.25L175.45-3.25Q174.45-0.2 174.65 0.4L174.65 0.4ZM194.37 1.35L194.37 1.35Q194.27 1.35 194.17 1.33 194.07 1.3 193.97 1.25L193.97 1.25Q193.27 0.9 193.07 0.25 192.87-0.4 192.97-1.4L192.97-1.4Q193.07-1.8 193.19-2.8 193.32-3.8 193.52-4.4L193.52-4.4 190.97-1.95 189.57-0.6Q188.12 0.85 187.17 0.85L187.17 0.85Q186.77 0.85 186.52 0.55L186.52 0.55Q186.07 0 186.07-0.8L186.07-0.8Q186.07-1.85 186.62-3.05 187.17-4.25 187.92-5.38 188.67-6.5 189.27-7.25L189.27-7.25Q190.77-9.1 192.19-10.15 193.62-11.2 195.17-11.2L195.17-11.2Q196.02-11.2 196.84-10.9 197.67-10.6 198.37-9.9L198.37-9.9 198.42-9.85Q198.42-9.7 198.17-9.55L198.17-9.55Q198.07-9.45 197.99-9.4 197.92-9.35 197.87-9.3L197.87-9.3Q197.27-8.7 196.52-7.3 195.77-5.9 195.22-4.38 194.67-2.85 194.67-1.75L194.67-1.75Q194.67-0.75 195.17-0.4L195.17-0.4Q195.42-0.25 195.72-0.25L195.72-0.25Q196.37-0.25 197.52-1.05L197.52-1.05Q197.57-1.1 197.74-1.23 197.92-1.35 198.27-1.6L198.27-1.6Q198.67-1.9 198.92-1.9L198.92-1.9Q199.17-1.9 199.17-1.7L199.17-1.7Q199.17-1.4 198.77-1L198.77-1Q198.47-0.75 198.09-0.45 197.72-0.15 197.22 0.15L197.22 0.15Q196.47 0.7 195.67 1.03 194.87 1.35 194.37 1.35ZM188.72-1.85L188.72-1.85Q189.77-1.85 192.62-4.95L192.62-4.95Q193.37-5.8 193.97-6.58 194.57-7.35 195.07-8.1L195.07-8.1Q195.97-9.55 195.67-10.1L195.67-10.1Q195.52-10.4 195.07-10.4L195.07-10.4Q194.52-10.4 193.57-9.83 192.62-9.25 191.64-8.35 190.67-7.45 189.87-6.55L189.87-6.55Q189.32-5.85 188.77-4.6 188.22-3.35 188.22-2.55L188.22-2.55Q188.22-1.85 188.72-1.85ZM195.17-13.4L195.17-13.4Q194.92-13.4 194.92-13.55L194.92-13.55Q194.92-13.65 195.02-13.75L195.02-13.75Q195.87-14.6 196.97-15.68 198.07-16.75 198.97-17.55L198.97-17.55Q199.17-17.75 199.29-17.78 199.42-17.8 199.62-17.8L199.62-17.8Q199.97-17.8 200.24-17.3 200.52-16.8 200.32-16.65L200.32-16.65Q199.47-16 198.57-15.4 197.67-14.8 196.77-14.2L196.77-14.2Q195.52-13.4 195.17-13.4ZM202.23 0.8L202.23 0.8Q201.33 0.8 201.33 0.1L201.33 0.1Q201.33-0.35 201.66-1.05 201.98-1.75 202.33-2.4L202.33-2.4Q203.28-4.1 204.08-5.7 204.88-7.3 205.63-9.1L205.63-9.1Q205.98-9.9 206.68-9.9L206.68-9.9Q207.43-9.9 207.13-9L207.13-9Q206.83-8.25 206.53-7.65L206.53-7.65Q205.13-4.8 205.13-3.8L205.13-3.8Q205.13-3.35 205.43-3.25L205.43-3.25Q206.13-3.8 206.48-4.08 206.83-4.35 206.88-4.4L206.88-4.4Q207.58-4.95 208.46-5.68 209.33-6.4 210.38-7.35L210.38-7.35Q212.03-8.85 213.13-8.85L213.13-8.85Q214.48-8.85 214.28-6.4L214.28-6.4Q214.23-5.45 214.28-4.55L214.28-4.55Q214.33-4.35 214.33-3.98 214.33-3.6 214.33-3.1L214.33-3.1Q214.33-2.6 214.93-2.6L214.93-2.6Q215.63-2.6 216.23-3L216.23-3 217.33-3.75 218.43-4.45Q218.53-4.5 218.78-4.5L218.78-4.5Q219.08-4.5 218.78-4.05L218.78-4.05Q215.63-0.15 213.58-0.15L213.58-0.15Q213.18-0.15 212.78-0.3L212.78-0.3Q212.43-0.45 212.28-1.18 212.13-1.9 212.11-2.75 212.08-3.6 212.08-4.05L212.08-4.05 212.13-5.7Q212.13-6.75 211.58-6.75L211.58-6.75Q210.28-6.75 205.18-1.4L205.18-1.4Q204.78-0.9 203.93-0.05 203.08 0.8 202.23 0.8Z" opacity="1" transform="matrix(1,0,0,1,0,0)" fill="#556970" class="slogan-text-1" data-fill-palette-color="secondary" id="text-1"></path></svg></g></svg></g></svg></g></svg></g></svg></g></svg></g></svg></g></svg></g><defs></defs></svg><rect width="395.52" height="247.2" fill="none" stroke="none" visibility="hidden"></rect></g></svg></g></svg>